<svg preserveAspectRatio="none" width="100%" height="100%" overflow="visible" style="display: block;" viewBox="0 0 32 32" fill="none" xmlns="http://www.w3.org/2000/svg">
<g id="Icon">
<path id="Vector" d="M16 24V6.66667" stroke="var(--stroke-0, #8AA3FF)" stroke-width="2.66667" stroke-linecap="round" stroke-linejoin="round"/>
<path id="Vector_2" d="M20 17.3333C18.8464 16.9961 17.8331 16.2942 17.112 15.3327C16.3909 14.3712 16.0007 13.2019 16 12C15.9993 13.2019 15.6091 14.3712 14.888 15.3327C14.1669 16.2942 13.1536 16.9961 12 17.3333" stroke="var(--stroke-0, #8AA3FF)" stroke-width="2.66667" stroke-linecap="round" stroke-linejoin="round"/>
<path id="Vector_3" d="M23.464 8.66652C23.7708 8.13517 23.9513 7.54036 23.9914 6.92811C24.0316 6.31586 23.9303 5.70258 23.6956 5.13571C23.4608 4.56884 23.0987 4.06358 22.6374 3.65902C22.1761 3.25446 21.6279 2.96145 21.0353 2.80264C20.4426 2.64384 19.8214 2.6235 19.2196 2.74321C18.6178 2.86291 18.0517 3.11945 17.5649 3.49298C17.0781 3.8665 16.6838 4.347 16.4125 4.8973C16.1411 5.4476 16 6.05295 16 6.66652C16 6.05295 15.8589 5.4476 15.5875 4.8973C15.3162 4.347 14.9219 3.8665 14.4351 3.49298C13.9483 3.11945 13.3822 2.86291 12.7804 2.74321C12.1786 2.6235 11.5574 2.64384 10.9647 2.80264C10.3721 2.96145 9.82387 3.25446 9.36257 3.65902C8.90127 4.06358 8.53923 4.56884 8.30444 5.13571C8.06965 5.70258 7.96842 6.31586 8.00858 6.92811C8.04873 7.54036 8.22919 8.13517 8.536 8.66652" stroke="var(--stroke-0, #8AA3FF)" stroke-width="2.66667" stroke-linecap="round" stroke-linejoin="round"/>
<path id="Vector_4" d="M23.996 6.83333C24.7797 7.03485 25.5073 7.41207 26.1237 7.93642C26.7401 8.46077 27.229 9.1185 27.5536 9.8598C27.8781 10.6011 28.0297 11.4065 27.9968 12.2151C27.964 13.0236 27.7476 13.8141 27.364 14.5267" stroke="var(--stroke-0, #8AA3FF)" stroke-width="2.66667" stroke-linecap="round" stroke-linejoin="round"/>
<path id="Vector_5" d="M24 23.9999C25.174 23.9998 26.3152 23.6124 27.2466 22.8977C28.178 22.183 28.8475 21.1809 29.1514 20.0469C29.4552 18.9129 29.3764 17.7103 28.9272 16.6257C28.4779 15.541 27.6834 14.6349 26.6667 14.0479" stroke="var(--stroke-0, #8AA3FF)" stroke-width="2.66667" stroke-linecap="round" stroke-linejoin="round"/>
<path id="Vector_6" d="M26.6227 23.3105C26.7161 24.0335 26.6603 24.768 26.4588 25.4686C26.2573 26.1692 25.9143 26.821 25.4509 27.3838C24.9876 27.9466 24.4138 28.4085 23.765 28.7409C23.1162 29.0733 22.4062 29.2691 21.6787 29.3163C20.9512 29.3635 20.2218 29.2611 19.5355 29.0154C18.8492 28.7696 18.2205 28.3858 17.6883 27.8876C17.1561 27.3893 16.7318 26.7873 16.4414 26.1186C16.151 25.45 16.0008 24.7289 16 23.9999C15.9992 24.7289 15.849 25.45 15.5586 26.1186C15.2682 26.7873 14.8438 27.3893 14.3117 27.8876C13.7795 28.3858 13.1508 28.7696 12.4645 29.0154C11.7782 29.2611 11.0488 29.3635 10.3213 29.3163C9.59383 29.2691 8.88377 29.0733 8.23496 28.7409C7.58614 28.4085 7.01236 27.9466 6.54904 27.3838C6.08573 26.821 5.74271 26.1692 5.54118 25.4686C5.33965 24.768 5.28389 24.0335 5.37733 23.3105" stroke="var(--stroke-0, #8AA3FF)" stroke-width="2.66667" stroke-linecap="round" stroke-linejoin="round"/>
<path id="Vector_7" d="M8.00001 23.9999C6.82601 23.9998 5.68482 23.6124 4.75343 22.8977C3.82205 22.183 3.15251 21.1809 2.84865 20.0469C2.54479 18.9129 2.62359 17.7103 3.07283 16.6257C3.52208 15.541 4.31666 14.6349 5.33334 14.0479" stroke="var(--stroke-0, #8AA3FF)" stroke-width="2.66667" stroke-linecap="round" stroke-linejoin="round"/>
<path id="Vector_8" d="M8.00399 6.83333C7.22026 7.03485 6.49266 7.41207 5.8763 7.93642C5.25993 8.46077 4.77097 9.1185 4.44645 9.8598C4.12192 10.6011 3.97033 11.4065 4.00317 12.2151C4.03601 13.0236 4.25241 13.8141 4.63599 14.5267" stroke="var(--stroke-0, #8AA3FF)" stroke-width="2.66667" stroke-linecap="round" stroke-linejoin="round"/>
</g>
</svg>
