<svg preserveAspectRatio="none" width="100%" height="100%" overflow="visible" style="display: block;" viewBox="0 0 32 32" fill="none" xmlns="http://www.w3.org/2000/svg">
<g id="Icon">
<path id="Vector" d="M29.3333 16H26.0267C25.444 15.9988 24.8769 16.1884 24.4122 16.54C23.9474 16.8915 23.6107 17.3856 23.4533 17.9467L20.32 29.0933C20.2998 29.1626 20.2577 29.2234 20.2 29.2667C20.1423 29.3099 20.0721 29.3333 20 29.3333C19.9279 29.3333 19.8577 29.3099 19.8 29.2667C19.7423 29.2234 19.7002 29.1626 19.68 29.0933L12.32 2.90667C12.2998 2.83743 12.2577 2.77661 12.2 2.73333C12.1423 2.69006 12.0721 2.66667 12 2.66667C11.9279 2.66667 11.8577 2.69006 11.8 2.73333C11.7423 2.77661 11.7002 2.83743 11.68 2.90667L8.54667 14.0533C8.38995 14.6122 8.05517 15.1047 7.59315 15.456C7.13113 15.8073 6.56709 15.9983 5.98667 16H2.66667" stroke="var(--stroke-0, #8AA3FF)" stroke-width="2.66667" stroke-linecap="round" stroke-linejoin="round"/>
</g>
</svg>
