<svg preserveAspectRatio="none" width="100%" height="100%" overflow="visible" style="display: block;" viewBox="0 0 32 32" fill="none" xmlns="http://www.w3.org/2000/svg">
<g id="Icon">
<path id="Vector" d="M21.6627 10.348C23.16 11.8479 24.001 13.8806 24.001 16C24.001 18.1193 23.16 20.1521 21.6627 21.652" stroke="var(--stroke-0, #8AA3FF)" stroke-width="2.66667" stroke-linecap="round" stroke-linejoin="round"/>
<path id="Vector_2" d="M25.4333 6.57747C27.9305 9.07752 29.3331 12.4666 29.3331 16.0001C29.3331 19.5337 27.9305 22.9228 25.4333 25.4228" stroke="var(--stroke-0, #8AA3FF)" stroke-width="2.66667" stroke-linecap="round" stroke-linejoin="round"/>
<path id="Vector_3" d="M6.56666 25.4228C4.06949 22.9228 2.66684 19.5337 2.66684 16.0001C2.66684 12.4666 4.06949 9.07752 6.56666 6.57747" stroke="var(--stroke-0, #8AA3FF)" stroke-width="2.66667" stroke-linecap="round" stroke-linejoin="round"/>
<path id="Vector_4" d="M10.3373 21.652C8.84001 20.1521 7.99903 18.1193 7.99903 16C7.99903 13.8806 8.84001 11.8479 10.3373 10.348" stroke="var(--stroke-0, #8AA3FF)" stroke-width="2.66667" stroke-linecap="round" stroke-linejoin="round"/>
<path id="Vector_5" d="M16 18.6667C17.4728 18.6667 18.6667 17.4728 18.6667 16C18.6667 14.5272 17.4728 13.3333 16 13.3333C14.5272 13.3333 13.3333 14.5272 13.3333 16C13.3333 17.4728 14.5272 18.6667 16 18.6667Z" stroke="var(--stroke-0, #8AA3FF)" stroke-width="2.66667" stroke-linecap="round" stroke-linejoin="round"/>
</g>
</svg>
