<svg preserveAspectRatio="none" width="100%" height="100%" overflow="visible" style="display: block;" viewBox="0 0 44.0625 44.0625" fill="none" xmlns="http://www.w3.org/2000/svg">
<g id="Icon">
<path id="Vector" d="M36.7188 23.8672C36.7188 33.0469 30.293 37.6368 22.6555 40.2989C22.2555 40.4344 21.8211 40.4279 21.4254 40.2805C13.7695 37.6368 7.34375 33.0469 7.34375 23.8672V11.0157C7.34375 10.5287 7.53718 10.0618 7.88149 9.71746C8.22579 9.37316 8.69277 9.17973 9.17969 9.17973C12.8516 9.17973 17.4414 6.9766 20.6359 4.18598C21.0249 3.85367 21.5197 3.67109 22.0313 3.67109C22.5428 3.67109 23.0376 3.85367 23.4266 4.18598C26.6395 6.99496 31.2109 9.17973 34.8828 9.17973C35.3697 9.17973 35.8367 9.37316 36.181 9.71746C36.5253 10.0618 36.7188 10.5287 36.7188 11.0157V23.8672Z" stroke="var(--stroke-0, #8AA3FF)" stroke-width="3.67188" stroke-linecap="round" stroke-linejoin="round"/>
</g>
</svg>
