<svg preserveAspectRatio="none" width="100%" height="100%" overflow="visible" style="display: block;" viewBox="0 0 59.5556 59.5556" fill="none" xmlns="http://www.w3.org/2000/svg">
<g id="Icon">
<path id="Vector" d="M9.92591 34.7412C9.45633 34.7428 8.99593 34.6112 8.5982 34.3615C8.20048 34.1119 7.88175 33.7545 7.67905 33.3309C7.47636 32.9073 7.39801 32.4349 7.45311 31.9686C7.50822 31.5022 7.69451 31.0611 7.99036 30.6964L32.557 5.38531C32.7413 5.1726 32.9924 5.02886 33.2692 4.97768C33.5459 4.92651 33.8318 4.97093 34.08 5.10367C34.3281 5.23641 34.5238 5.44957 34.6349 5.70817C34.7459 5.96677 34.7657 6.25544 34.6911 6.52679L29.9267 21.4653C29.7862 21.8413 29.739 22.2458 29.7892 22.644C29.8393 23.0423 29.9854 23.4224 30.2147 23.7518C30.4441 24.0812 30.7499 24.3501 31.106 24.5353C31.4621 24.7205 31.8579 24.8166 32.2592 24.8153H49.6296C50.0992 24.8137 50.5596 24.9454 50.9573 25.195C51.355 25.4447 51.6738 25.8021 51.8765 26.2256C52.0792 26.6492 52.1575 27.1216 52.1024 27.588C52.0473 28.0543 51.861 28.4954 51.5652 28.8601L26.9985 54.1712C26.8142 54.3839 26.5631 54.5277 26.2864 54.5789C26.0096 54.63 25.7237 54.5856 25.4755 54.4529C25.2274 54.3201 25.0317 54.107 24.9207 53.8484C24.8096 53.5898 24.7898 53.3011 24.8644 53.0298L29.6289 38.0912C29.7694 37.7152 29.8165 37.3108 29.7664 36.9125C29.7162 36.5143 29.5702 36.1341 29.3408 35.8047C29.1114 35.4753 28.8056 35.2065 28.4495 35.0212C28.0934 34.836 27.6977 34.7399 27.2963 34.7412H9.92591Z" stroke="var(--stroke-0, #6D7CFF)" stroke-width="4.96296" stroke-linecap="round" stroke-linejoin="round"/>
</g>
</svg>
