<svg preserveAspectRatio="none" width="100%" height="100%" overflow="visible" style="display: block;" viewBox="0 0 59.0694 59.0694" fill="none" xmlns="http://www.w3.org/2000/svg">
<g id="Icon">
<path id="Vector" d="M36.9184 4.92257H14.7674C13.4618 4.92257 12.2098 5.44118 11.2867 6.36432C10.3635 7.28746 9.8449 8.53951 9.8449 9.84502V49.2247C9.8449 50.5302 10.3635 51.7822 11.2867 52.7054C12.2098 53.6285 13.4618 54.1471 14.7674 54.1471H44.3021C45.6076 54.1471 46.8596 53.6285 47.7828 52.7054C48.7059 51.7822 49.2245 50.5302 49.2245 49.2247V17.2287L36.9184 4.92257Z" stroke="var(--stroke-0, #6D7CFF)" stroke-width="4.92245" stroke-linecap="round" stroke-linejoin="round"/>
<path id="Vector_2" d="M34.4573 4.92257V14.7675C34.4573 16.073 34.9759 17.325 35.899 18.2482C36.8222 19.1713 38.0742 19.6899 39.3797 19.6899H49.2247" stroke="var(--stroke-0, #6D7CFF)" stroke-width="4.92245" stroke-linecap="round" stroke-linejoin="round"/>
<path id="Vector_3" d="M24.6124 22.1511H19.6899" stroke="var(--stroke-0, #6D7CFF)" stroke-width="4.92245" stroke-linecap="round" stroke-linejoin="round"/>
<path id="Vector_4" d="M39.3797 31.9959H19.6899" stroke="var(--stroke-0, #6D7CFF)" stroke-width="4.92245" stroke-linecap="round" stroke-linejoin="round"/>
<path id="Vector_5" d="M39.3797 41.841H19.6899" stroke="var(--stroke-0, #6D7CFF)" stroke-width="4.92245" stroke-linecap="round" stroke-linejoin="round"/>
</g>
</svg>
